HIERARCHY
ROOT hip
{
	OFFSET 0.000000 0.000000 0.000000 
	CHANNELS 6 Xposition Yposition Zposition Xrotation Zrotation Yrotation
	JOINT abdomen
	{
		OFFSET 0.000000 3.402643 0.000000 
		CHANNELS 3 Xrotation Zrotation Yrotation
		JOINT chest
		{
			OFFSET 0.000000 8.438565 -0.680529 
			CHANNELS 3 Xrotation Zrotation Yrotation
			JOINT neck
			{
				OFFSET 0.000000 10.207942 -0.272212 
				CHANNELS 3 Xrotation Zrotation Yrotation
				JOINT head
				{
					OFFSET 0.000000 3.130431 0.000000 
					CHANNELS 3 Xrotation Zrotation Yrotation
					End Site
					{
						OFFSET 0.000000 3.130435 0.000000 
					}
				}
			}
			JOINT lCollar
			{
				OFFSET 3.470700 6.669187 -0.816635 
				CHANNELS 3 Yrotation Zrotation Xrotation
				JOINT lShldr
				{
					OFFSET 3.198488 0.000000 0.000000 
					CHANNELS 3 Zrotation Yrotation Xrotation
					JOINT lForeArm
					{
						OFFSET 10.139888 0.000000 0.000000 
						CHANNELS 3 Yrotation Zrotation Xrotation
						JOINT lHand
						{
							OFFSET 8.370511 0.000000 0.000000 
							CHANNELS 3 Zrotation Yrotation Xrotation
							End Site
							{
								OFFSET 4.083176 0.000000 0.000000 
							}
						}
					}
				}
			}
			JOINT rCollar
			{
				OFFSET -3.470700 6.669187 -0.816635 
				CHANNELS 3 Yrotation Zrotation Xrotation
				JOINT rShldr
				{
					OFFSET -3.198488 0.000000 0.000000 
					CHANNELS 3 Zrotation Yrotation Xrotation
					JOINT rForeArm
					{
						OFFSET -10.139888 0.000000 0.000000 
						CHANNELS 3 Yrotation Zrotation Xrotation
						JOINT rHand
						{
							OFFSET -8.370511 0.000000 0.000000 
							CHANNELS 3 Zrotation Yrotation Xrotation
							End Site
							{
								OFFSET -4.083176 0.000000 0.000000 
							}
						}
					}
				}
			}
		}
	}
	JOINT lThigh
	{
		OFFSET 5.308129 -1.633274 1.361059 
		CHANNELS 3 Xrotation Zrotation Yrotation
		JOINT lShin
		{
			OFFSET -2.041588 -20.007561 0.000000 
			CHANNELS 3 Xrotation Zrotation Yrotation
			JOINT lFoot
			{
				OFFSET 0.000000 -19.190928 -1.224953 
				CHANNELS 3 Xrotation Yrotation Zrotation
				End Site
				{
					OFFSET 0.000000 -2.449906 4.627600 
				}
			}
		}
	}
	JOINT rThigh
	{
		OFFSET -5.308129 -1.633274 1.361059 
		CHANNELS 3 Xrotation Zrotation Yrotation
		JOINT rShin
		{
			OFFSET 2.041588 -20.007561 0.000000 
			CHANNELS 3 Xrotation Zrotation Yrotation
			JOINT rFoot
			{
				OFFSET 0.000000 -19.190928 -1.224953 
				CHANNELS 3 Xrotation Yrotation Zrotation
				End Site
				{
					OFFSET 0.000000 -2.449906 4.627600 
				}
			}
		}
	}
}
MOTION
Frames: 11
Frame Time: 0.011111
12.768690 53.640877 -28.971928 15.698415 4.463698 -24.124992 36.098824 0.726623 4.452090 -19.902916 -5.338003 1.001986 -19.927366 -0.752313 2.651466 58.321270 -11.515789 -1.538306 -0.779411 -2.542641 1.133673 -70.767052 -63.891254 98.904984 -84.428658 3.515467 25.845844 8.524705 12.647240 -61.233772 -6.215510 -0.569171 2.783673 19.906975 71.457458 49.416470 83.461967 -4.371724 24.945435 -8.534408 -12.637552 39.212749 -21.975622 16.023365 -19.698599 18.472696 -5.799881 -3.330789 -24.591290 16.035934 3.755083 -21.035957 -7.370045 0.243006 14.428926 5.903488 2.736188 -10.896571 -7.048876 1.869827 
12.742787 53.634705 -28.998446 15.750927 4.392967 -23.994518 36.321083 0.792458 4.858633 -19.814674 -5.340582 1.091459 -19.989328 -0.962340 2.552944 58.273384 -11.374310 -1.729412 -0.779411 -2.542641 1.133673 -71.117538 -64.098488 99.299347 -84.455498 3.487292 25.878510 8.524705 12.647240 -61.204479 -6.215510 -0.569171 2.783673 18.673653 71.194672 48.788841 83.593094 -4.264217 25.057800 -8.534408 -12.637552 39.359234 -22.143585 16.131317 -19.616518 18.521883 -5.806579 -3.336143 -24.496565 15.794382 3.646704 -21.147446 -7.312885 -0.106428 14.663740 5.896721 2.746869 -10.941556 -6.867393 1.902219 
12.717500 53.636246 -29.023420 15.811649 4.406475 -23.860115 36.494808 0.818445 5.186180 -19.834297 -5.370317 1.171093 -19.934015 -1.200999 2.502679 58.164558 -11.214314 -1.804099 -0.779411 -2.542641 1.133673 -71.404129 -64.215515 99.653488 -84.469154 3.472991 25.889656 8.524705 12.647240 -61.077526 -6.215510 -0.569171 2.783673 17.744669 70.854462 48.243584 83.723785 -4.156471 25.180470 -8.534408 -12.637552 39.525249 -22.238752 16.179445 -19.581043 18.438944 -5.810954 -3.320087 -24.506964 15.582986 3.588337 -21.280687 -7.311683 -0.233847 14.831445 5.897501 2.771652 -11.013575 -6.828175 1.896307 
12.694065 53.640877 -29.035755 15.831429 4.519568 -23.685583 36.596184 0.771054 5.330205 -19.785307 -5.235042 1.207121 -19.839245 -1.418791 2.484206 58.047401 -11.282611 -1.955307 -0.779411 -2.542641 1.133673 -71.757889 -64.344490 99.997055 -84.483932 3.459894 25.911051 8.524705 12.647240 -60.755257 -6.215510 -0.569171 2.783673 16.714823 70.599861 47.706757 83.846115 -4.053186 25.281771 -8.534408 -12.637552 39.906113 -22.327681 16.062582 -19.618120 18.358177 -5.807017 -3.311507 -24.371490 15.529661 3.507241 -21.493261 -7.460577 -0.285807 15.066388 5.884774 2.820551 -11.126639 -6.887420 1.870973 
12.662304 53.639637 -29.037300 15.833432 4.634202 -23.509890 36.688705 0.742031 5.420743 -19.657867 -5.218569 1.224203 -19.781342 -1.443729 2.449299 58.008217 -11.499416 -2.140813 -0.779411 -2.542641 1.133673 -71.928986 -64.555695 100.245476 -84.497490 3.445526 25.922192 8.524705 12.647240 -60.452530 -6.215510 -0.569171 2.783673 15.704777 70.451477 47.287376 83.989235 -3.930017 25.425064 -8.534408 -12.637552 40.218613 -22.348150 15.935934 -19.639399 18.262394 -5.820656 -3.286169 -24.143566 15.539985 3.431322 -21.636047 -7.615543 -0.393053 15.307120 5.883704 2.861936 -11.274538 -6.915346 1.837982 
12.624375 53.633472 -29.044083 15.834113 4.642869 -23.354086 36.830017 0.855315 5.462555 -19.589228 -5.239555 1.217695 -19.771299 -1.437545 2.467433 58.010765 -11.718127 -2.215615 -0.779411 -2.542641 1.133673 -71.919456 -64.721878 100.219040 -84.525063 3.417630 25.954777 8.524705 12.647240 -60.247444 -6.215510 -0.569171 2.783673 14.706010 70.448387 47.055485 84.156670 -3.775424 25.580950 -8.534408 -12.637552 40.443218 -22.346100 15.945123 -19.572044 18.160204 -5.819470 -3.276230 -23.943224 15.393588 3.312181 -21.680960 -7.643227 -0.583999 15.508274 5.876064 2.889348 -11.391537 -6.850929 1.841735 
12.597548 53.628227 -29.057959 15.850864 4.633759 -23.213982 37.016228 1.023510 5.454015 -19.628439 -5.238315 1.191968 -19.741282 -1.407238 2.496871 58.000683 -11.990172 -2.290862 -0.779411 -2.542641 1.133673 -71.824471 -64.699211 99.994209 -84.588509 3.354953 26.020201 8.524705 12.647240 -60.159554 -6.215510 -0.569171 2.783673 14.041485 70.566139 46.996204 84.202194 -3.736128 25.625164 -8.534408 -12.637552 40.628761 -22.422476 15.964142 -19.511047 18.147408 -5.827722 -3.276572 -23.733269 15.262815 3.205072 -21.727821 -7.656153 -0.700467 15.609486 5.886452 2.879854 -11.476227 -6.858834 1.843492 
12.580280 53.625763 -29.069984 15.881261 4.602704 -23.111719 37.177101 1.165749 5.528830 -19.706848 -5.295149 1.188587 -19.690979 -1.270776 2.477207 58.030483 -12.273613 -2.480067 -0.779411 -2.542641 1.133673 -71.799309 -64.561295 99.835030 -84.656303 3.283955 26.096466 8.524705 12.647240 -60.296276 -6.215510 -0.569171 2.783673 13.803823 70.660423 47.022144 84.137306 -3.797543 25.568636 -8.534408 -12.637552 40.599468 -22.525543 16.004749 -19.502895 18.150267 -5.819401 -3.265616 -23.610233 15.222948 3.146749 -21.745573 -7.626449 -0.733352 15.623028 5.877913 2.879698 -11.535412 -6.917233 1.821795 
12.565170 53.623608 -29.077074 15.950355 4.575890 -23.060997 37.305328 1.324306 5.539503 -19.706879 -5.197254 1.170305 -19.749762 -1.310901 2.504189 58.092472 -12.430170 -2.507879 -0.779411 -2.542641 1.133673 -71.922928 -64.477150 99.590187 -84.710083 3.227024 26.161570 8.524705 12.647240 -60.403702 -6.215510 -0.569171 2.783673 13.315504 70.838799 46.996075 84.128021 -3.802289 25.548298 -8.534408 -12.637552 40.570168 -22.638420 16.062101 -19.470448 18.204473 -5.807858 -3.288798 -23.660114 15.134798 3.120117 -21.775721 -7.567879 -0.741170 15.612571 5.877979 2.878831 -11.602598 -6.953273 1.788858 
12.549444 53.622368 -29.080469 15.998726 4.527934 -23.035925 37.390392 1.569804 5.465480 -19.677427 -5.265565 1.117918 -19.778631 -1.375097 2.611405 58.071960 -12.405994 -2.294661 -0.779411 -2.542641 1.133673 -71.747780 -64.402924 99.217728 -84.770943 3.163118 26.236755 8.524705 12.647240 -60.218151 -6.215510 -0.569171 2.783673 12.992333 71.156395 47.101345 84.159241 -3.777474 25.590500 -8.534408 -12.637552 40.599468 -22.738987 16.150801 -19.421019 18.252558 -5.817302 -3.304259 -23.595467 15.063825 3.088028 -21.761795 -7.488672 -0.741020 15.581065 5.880108 2.857001 -11.606869 -6.966289 1.782632 
12.532794 53.622681 -29.085094 16.035599 4.472129 -23.033037 37.527843 1.712340 5.487051 -19.755901 -5.127096 1.108061 -19.740074 -1.498274 2.705876 58.032257 -12.477324 -2.175117 -0.779411 -2.542641 1.133673 -71.799179 -64.277283 99.048897 -84.811089 3.119767 26.280382 8.524705 12.647240 -59.993542 -6.215510 -0.569171 2.783673 12.488784 71.314514 47.182827 84.209419 -3.729587 25.635912 -8.534408 -12.637552 40.628761 -22.784704 16.237774 -19.408598 18.263046 -5.817521 -3.295442 -23.547258 15.007335 3.054845 -21.744030 -7.401361 -0.810802 15.571404 5.877174 2.865500 -11.615719 -6.927318 1.801584 
